<svg xmlns="http://www.w3.org/2000/svg" width="750" height="471"><path fill="#D9222A" d="M675 235.5a179.5 179.5 0 11-359 0 179.5 179.5 0 01359 0"/><path fill="#0097D0" d="M356.9 349.5c-5-6-9.6-12.4-13.7-19h63.6c3.8-6.1 7.3-12.5 10.3-19H333c-3-6.2-5.5-12.5-7.6-19h99.4a179.3 179.3 0 005.2-95H320.1c1.4-6.5 3.1-12.8 5.2-19h99.4c-2.2-6.5-4.7-12.9-7.6-19H333a181 181 0 0110.3-19h63.6c-4.2-6.7-8.7-13-13.7-19H357a181 181 0 0118.1-19 179.5 179.5 0 1018.1 247H357"/><path d="M651 335.5a5.8 5.8 0 1111.7 0 5.8 5.8 0 01-11.6 0zm5.9 4.5a4.4 4.4 0 100-8.8 4.4 4.4 0 000 8.8zm-.8-2h-1.2v-5h2.2c.4 0 .9 0 1.3.3.4.2.6.7.6 1.2 0 .6-.3 1.1-.9 1.3l1 2.3h-1.4l-.7-2h-1v2zm0-2.8h1.4c.2-.2.3-.5.3-.7 0-.2-.2-.4-.3-.5-.2-.1-.6 0-.8 0h-.6v1.2zM372.4 284c-7.6 2-15 3-22.9 3-25 0-38-11.4-38-33.2 0-25.4 16.6-44.2 39-44.2 18.5 0 30.2 10.5 30.2 27a70 70 0 01-2.7 18.3h-44.5c-1.6 10.6 6.2 15.3 19.4 15.3 8 0 15.1-1.4 23-4.6l-3.5 18.4zm-12-44.1c0-1.7 2.6-13-10.3-13.3-7.1 0-12.2 4.7-14.3 13.3h24.7zM387.5 234.9c0 9.4 5.3 15.9 17.3 20.7 9.2 3.8 10.7 4.9 10.7 8.2 0 4.7-4 6.8-13.1 6.8-6.8 0-13-.9-20.3-3l-3.2 17.2c6.5 1.5 15.6 2 23.7 2.2 24 0 35-7.9 35-24.9 0-10.2-4.5-16.2-16-20.7-9.5-3.8-10.6-4.6-10.6-8 0-4.1 3.8-6.1 11.1-6.1 4.5 0 10.6.4 16.4 1l3.3-17.2c-6-.8-15-1.5-20.1-1.5-25.4 0-34.3 11.5-34.2 25.3M299.3 285.8h-18.7l.5-7.8c-5.7 6.1-13.3 9-23.6 9-12.2 0-20.5-8.3-20.5-20.3 0-18.2 14.5-28.7 39.4-28.7 2.6 0 5.8.2 9.2.6.7-2.5.9-3.5.9-4.8 0-5-4-6.8-14.5-6.8a86.1 86.1 0 00-23.7 3.3l3.1-16.7a102 102 0 0126.9-4c19.3 0 29.5 7.6 29.5 21.8.1 3.8-1.2 11.4-1.9 14.8-.7 4.8-6 33-6.6 39.6zm-16.4-33.2l-5-.3c-12.7 0-19.2 3.8-19.2 11.2 0 4.7 3.1 7.7 8 7.7 9.2 0 15.8-7.7 16.2-18.6zM477 284.6a58 58 0 01-16 2.4c-11.5 0-17.7-5.8-17.7-16.2-.4-2.9 2.4-16.1 3-19.8l10.6-57.5H479l-3.4 17.8h11.4l-3 18.2h-11.5s-6.3 31.5-6.3 34c0 3.8 2.3 5.4 7.6 5.4 2.6 0 4.5-.2 6-.7l-2.9 16.4M576.3 209.6c-16.3 0-29 6.7-36.4 18l6.4-16.7c-11.8-4.3-19.5 1.9-26.4 10.7l-2.3 2.8v-13h-20.8c-2.8 23-7.8 46.3-11.7 69.4l-1 5h22.5c2-11.7 3.8-21.2 5.6-28.8 4.7-20.8 12.8-27.1 24.8-24.3-2.8 6-4.3 12.9-4.3 20.5 0 18.6 10 33.8 35.1 33.8 25.3 0 43.6-13.5 43.6-44.3 0-18.6-12.2-33-35.1-33zm-6.6 59.3c-8 .2-12.7-6.5-12.7-16.4 0-11.8 7-25.1 18.3-25.1 9 0 12.2 7.2 12.2 14.8 0 16.8-7 26.7-17.8 26.7zM226.5 285.8h-22.3l13.3-70-30.6 70h-20.4l-3.7-69.6-13.3 69.6h-20.3l17.3-91h34.9l3 50.7 22-50.7h37.7l-17.6 91"/><path fill="#FFF" d="M613.1 274.4a5.8 5.8 0 1111.6 0 5.8 5.8 0 01-11.6 0zm5.8 4.4a4.4 4.4 0 100-8.8 4.4 4.4 0 000 8.8zm-.7-1.9H617v-5h2.1c.5 0 1 0 1.3.2.4.3.7.8.7 1.3s-.4 1-1 1.3l1 2.2h-1.3l-.8-2h-.8v2zm0-2.9H619.5l.3-.6c0-.2 0-.5-.2-.6h-1.4v1.2zM378 278.4c-7.6 2-15 3-22.9 3-25 0-38-11.4-38-33.2 0-25.4 16.6-44.2 39-44.2 18.5 0 30.3 10.5 30.3 27 0 5.4-.8 10.7-2.8 18.3h-44.5c-1.6 10.6 6.2 15.3 19.4 15.3 8 0 15.1-1.5 23-4.6l-3.4 18.4zm-12-44.2c0-1.6 2.6-13-10.3-13.2-7.1 0-12.2 4.7-14.3 13.2h24.7zM393.1 229.3c0 9.4 5.3 15.9 17.4 20.7 9.2 3.8 10.6 4.9 10.6 8.2 0 4.7-4 6.8-13 6.8-6.9 0-13-1-20.3-3l-3.3 17.2c6.5 1.5 15.6 2 23.7 2.2 24 0 35-7.9 35-24.9 0-10.2-4.5-16.2-16-20.7-9.5-3.8-10.6-4.6-10.6-8 0-4.1 3.8-6.2 11.1-6.2 4.5 0 10.6.5 16.4 1.2l3.3-17.3c-6-.8-14.9-1.5-20-1.5-25.5 0-34.3 11.5-34.3 25.3M304.9 280.2h-18.7l.5-7.8c-5.7 6.1-13.3 9-23.6 9-12.2 0-20.5-8.3-20.5-20.3 0-18.2 14.5-28.7 39.4-28.7 2.6 0 5.8.2 9.2.6.7-2.5.9-3.5.9-4.8 0-5-4-6.8-14.4-6.8a86.3 86.3 0 00-23.8 3.3L257 208c11.2-2.9 18.6-4 26.9-4 19.3 0 29.5 7.6 29.5 21.8.1 3.8-1.2 11.4-1.8 14.8-.8 4.8-6.2 33-6.7 39.6zM288.5 247c-2.4-.3-3.4-.3-5-.3-12.7 0-19.2 3.8-19.2 11.2 0 4.7 3.2 7.7 8 7.7 9.2 0 15.8-7.7 16.2-18.6zM482.6 279a58.1 58.1 0 01-16 2.4c-11.5 0-17.7-5.8-17.7-16.2-.4-2.9 2.4-16.1 3-19.8l10.6-57.5h22.2l-3.4 17.8h11.4l-3 18.2h-11.5s-6.3 31.5-6.3 34c0 3.8 2.3 5.4 7.6 5.4 2.6 0 4.6-.2 6-.7l-2.9 16.4M593 236.6c0 16.8-6.8 26.7-17.7 26.7-7.9.2-12.7-6.5-12.7-16.4 0-11.8 7-25.1 18.3-25.1 9 0 12.2 7.2 12.2 14.8zm24 .5c0-18.6-12.2-33-35.1-33-26.5 0-43.6 17.5-43.6 43.5 0 18.6 10.1 33.8 35.2 33.8 25.3 0 43.6-13.5 43.6-44.3zM502.4 205.7c-2.8 23-7.8 46.4-11.7 69.5l-1 5h22.5c8-44.6 10.8-57.3 27.7-52.8l8.2-21c-11.9-4.4-19.5 1.8-26.4 10.6.7-4 1.8-7.8 1.6-11.3h-20.9M232.1 280.2h-22.3l13.3-70-30.6 70h-20.4l-3.7-69.6-13.3 69.6h-20.3l17.3-91h35l1.8 56.3 24.5-56.3h36.4l-17.7 91"/></svg>