<svg xmlns="http://www.w3.org/2000/svg" width="750" height="471"><path fill="#0E4595" d="M278.2 334.2l33.4-195.7h53.3l-33.4 195.7h-53.3zM524.3 142.7c-10.6-4-27.1-8.2-47.8-8.2-52.7 0-89.9 26.5-90.2 64.6-.3 28.1 26.5 43.8 46.8 53.2 20.7 9.6 27.7 15.7 27.6 24.2-.1 13.2-16.6 19.2-32 19.2-21.3 0-32.6-3-50.1-10.3l-7-3.1-7.4 43.8a168.9 168.9 0 0059.4 10.4c56.1 0 92.5-26.2 93-66.8.1-22.3-14-39.3-44.9-53.2-18.6-9-30-15.1-29.9-24.3 0-8.1 9.7-16.8 30.6-16.8 17.4-.3 30 3.5 39.9 7.5l4.8 2.2 7.2-42.4M661.6 138.5h-41.2c-12.8 0-22.3 3.4-28 16.2l-79.2 179.4h56l11.3-29.4h68.3l6.5 29.4h49.5l-43.2-195.6zm-65.4 126.4l21.3-54.8c-.4.6 4.3-11.3 7-18.6l3.6 16.8 12.4 56.6h-44.3zM232.9 138.5L180.7 272l-5.6-27.2c-9.7-31.2-40-65.1-73.9-82L149 333.8h56.4l84-195.4H233"/><path fill="#F2AE14" d="M132 138.5H45.8l-.7 4c67 16.2 111.2 55.4 129.6 102.5l-18.7-90c-3.2-12.4-12.6-16.1-24.2-16.5"/></svg>